PathFileType	4	(X/Y/Z)	./resultDataOpenSim/trcMotMarkerGrf/sub06/qtm-01-05.trc
DataRate	CameraRate	NumFrames	NumMarkers	Units	OrigDataRate	OrigDataStartFrame	OrigNumFrames
250.000000	250.000000	11	24	m	250.000000	441	503
Frame#	Time	L.Toe.Tip			R.Toe.Tip			L.Ankle.Lat			R.Ankle.Lat			L.Ankle.Med			R.Ankle.Med			L.Heel			R.Heel			L.Knee.Lat			R.Knee.Lat			L.Knee.Med			R.Knee.Med			L.Thigh.Upper			R.Thigh.Upper			L.ASIS			R.ASIS			V.Sacral			L.Acromium			R.Acromium			C7			L.Elbow			R.Elbow			L.Wrist.Lat			R.Wrist.Lat
		X1	Y1	Z1	X2	Y2	Z2	X3	Y3	Z3	X4	Y4	Z4	X5	Y5	Z5	X6	Y6	Z6	X7	Y7	Z7	X8	Y8	Z8	X9	Y9	Z9	X10	Y10	Z10	X11	Y11	Z11	X12	Y12	Z12	X13	Y13	Z13	X14	Y14	Z14	X15	Y15	Z15	X16	Y16	Z16	X17	Y17	Z17	X18	Y18	Z18	X19	Y19	Z19	X20	Y20	Z20	X21	Y21	Z21	X22	Y22	Z22	X23	Y23	Z23	X24	Y24	Z24

441	1.76	1.6385411	0.033693229	0.013934734	1.1121138	0.086684155	0.16841278	1.5156921	0.066456605	-0.018847287	1.0986179	0.2273755	0.19054393	1.5130697	0.081596552	0.066939524	1.1417327	0.21536244	0.11239726	1.4374189	0.040012205	0.018094853	1.0739385	0.26679382	0.12370039	1.5891303	0.43412711	-0.033610061	1.4357556	0.40614595	0.23632996	1.554813	0.43282421	0.082274641	1.437638	0.38461251	0.10257616	1.4721238	0.81298361	-0.11194013	1.3969315	0.76634088	0.21629115	1.5268028	0.85169893	-0.053552348	1.491576	0.83276045	0.19077217	1.3187358	0.91404759	0.052936009	1.4265673	1.3154009	-0.13566174	1.4199186	1.3181143	0.22773887	1.3452333	1.3554223	0.042541882	1.3434077	1.0098083	-0.17837053	1.3840154	0.99927042	0.30536796	1.4487615	0.7935559	-0.22782137	1.5895477	0.86257992	0.30940491
442	1.764	1.6385574	0.033673331	0.013952655	1.129498	0.087222023	0.16968209	1.5157366	0.066521097	-0.018861145	1.1121841	0.22724194	0.1909428	1.5130967	0.081629492	0.067020668	1.1558417	0.21576945	0.1128294	1.4374341	0.040158988	0.01817969	1.0869061	0.26612735	0.12405245	1.5909423	0.43387546	-0.033363333	1.4477609	0.40858209	0.23678128	1.5563587	0.43288119	0.082435706	1.4502153	0.38672245	0.10299452	1.4773074	0.81378082	-0.11204378	1.3982625	0.76901597	0.2167978	1.5326287	0.8528226	-0.053851781	1.4975981	0.83474894	0.19082793	1.3245562	0.91573974	0.05274505	1.43292	1.3172552	-0.13548146	1.4254251	1.3197977	0.22791008	1.3513151	1.3570034	0.042557944	1.3516853	1.0108857	-0.17867696	1.3879969	1.0010239	0.30471906	1.4601062	0.79579771	-0.22696427	1.5916043	0.86132456	0.30975852
443	1.768	1.6385565	0.03365598	0.013979291	1.1470464	0.087631204	0.17095923	1.5157502	0.066629934	-0.018957281	1.1259723	0.22694444	0.19136198	1.5130837	0.081660398	0.067108585	1.1700852	0.21595962	0.11332401	1.4374279	0.040303417	0.018210403	1.0999436	0.26513091	0.12440431	1.5927564	0.43367058	-0.033087487	1.4596837	0.41111616	0.2371765	1.5577964	0.43291756	0.082624829	1.4629262	0.38885416	0.10343354	1.4822948	0.81453264	-0.11212432	1.4002705	0.77149825	0.21719019	1.5383882	0.85395688	-0.054171783	1.5035729	0.83672324	0.19084564	1.3305369	0.91744125	0.0524938	1.4392449	1.3191317	-0.1352885	1.4309177	1.3214705	0.22808018	1.3574029	1.3585891	0.042607279	1.3599569	1.0119929	-0.17897942	1.3919621	1.0027927	0.30412498	1.4714405	0.79812231	-0.22607061	1.5935583	0.86015296	0.31014351
444	1.772	1.6385443	0.033645601	0.01401413	1.1645968	0.087870654	0.17230947	1.5157456	0.066762034	-0.019071483	1.1400509	0.22651226	0.19178576	1.5130435	0.081700808	0.067203888	1.1844327	0.21592254	0.11383726	1.437399	0.040452156	0.018204757	1.1131006	0.26383542	0.12466959	1.5944992	0.43350125	-0.032796631	1.4716512	0.41373775	0.23754074	1.5590747	0.43291908	0.082825753	1.4756985	0.39105783	0.10386286	1.4872385	0.8152334	-0.11221233	1.4044266	0.77365075	0.21748679	1.5440736	0.85510891	-0.054496856	1.5095613	0.83867821	0.19083094	1.3368474	0.91912318	0.052116525	1.4455555	1.3210416	-0.13508992	1.4364192	1.3231314	0.22824653	1.3634845	1.3601754	0.042678066	1.3682253	1.0131282	-0.17928664	1.3960091	1.0045778	0.30356257	1.482762	0.80052497	-0.22514287	1.5954088	0.85906363	0.31056015
445	1.776	1.6385315	0.033641852	0.014054065	1.182135	0.087941991	0.17374308	1.5157411	0.066884635	-0.019133401	1.1543606	0.22592071	0.19220177	1.5130008	0.08177903	0.067301626	1.1988653	0.21566162	0.1143327	1.4373661	0.040622147	0.018220954	1.1263636	0.26225944	0.12486006	1.5961033	0.43336053	-0.032504343	1.4837675	0.41643272	0.23789632	1.5601216	0.43287401	0.083012935	1.488384	0.39336964	0.10427066	1.4921982	0.81588865	-0.1123028	1.4104719	0.7756128	0.21780345	1.5497098	0.85628617	-0.05482416	1.5155974	0.84061715	0.19078105	1.3434097	0.92074089	0.051658428	1.4518617	1.3229874	-0.1348839	1.4419663	1.3247768	0.2284101	1.3695572	1.3617548	0.042757089	1.3764951	1.014286	-0.17960683	1.4001534	1.006388	0.30301567	1.4940935	0.80299769	-0.22419208	1.5971651	0.85805328	0.31100088
446	1.78	1.6385283	0.033641075	0.014092942	1.199751	0.087877999	0.17522563	1.5157484	0.066987771	-0.019127105	1.1688323	0.22514088	0.19259528	1.512983	0.081933083	0.067394925	1.2133872	0.21519214	0.11481566	1.4373565	0.040821597	0.018327248	1.1397063	0.26041153	0.12502125	1.5975719	0.43324382	-0.032221999	1.4959883	0.41918717	0.23824888	1.5609045	0.4327865	0.083165942	1.5008387	0.39580212	0.10464979	1.4971713	0.81652528	-0.11238131	1.4174702	0.77752849	0.21815682	1.5553733	0.85749277	-0.055176292	1.5216835	0.84254927	0.19068451	1.3500068	0.92225207	0.051229397	1.45816	1.324946	-0.13466542	1.4475948	1.3263946	0.2285678	1.3756243	1.3633185	0.042840408	1.3847717	1.0154586	-0.17994491	1.4042794	1.0082246	0.3024692	1.5054584	0.80553101	-0.223229	1.5988473	0.85711661	0.31145689
447	1.784	1.6385396	0.033638924	0.014122887	1.2175133	0.087704201	0.17672143	1.5157744	0.067088652	-0.019077268	1.18345	0.22416848	0.19294985	1.513006	0.082174994	0.067479409	1.228037	0.21452252	0.1153469	1.4373831	0.041041065	0.018527573	1.1531027	0.25828917	0.12520346	1.5989525	0.43314513	-0.031962934	1.5081304	0.42198357	0.23857459	1.5615166	0.43268517	0.083286786	1.5130188	0.39833722	0.10498645	1.5021341	0.81718088	-0.11244035	1.4247456	0.77946141	0.21851771	1.561145	0.85872564	-0.055580792	1.527815	0.84447822	0.19053349	1.3565105	0.92366204	0.050898808	1.4644414	1.326884	-0.13443317	1.4533197	1.3279681	0.22870987	1.3816888	1.3648577	0.042935554	1.3930546	1.0166411	-0.18029501	1.4081479	1.0100714	0.30190054	1.5168693	0.80811556	-0.22225796	1.6004828	0.85624907	0.31192351
448	1.788	1.6385638	0.033632636	0.014137737	1.2354342	0.08743348	0.17821251	1.5158207	0.067203448	-0.01900584	1.1982174	0.22300229	0.1932629	1.5130712	0.082460446	0.06755369	1.2428723	0.21364674	0.11601371	1.4374358	0.041269219	0.018757638	1.1665193	0.25587464	0.12545578	1.6002775	0.43305828	-0.031740689	1.5200494	0.42479571	0.23884488	1.562158	0.4326036	0.083398484	1.5250064	0.40093944	0.1052738	1.5070206	0.81787486	-0.11247924	1.4322115	0.78141798	0.21891041	1.5670113	0.85997271	-0.056030349	1.533994	0.84639738	0.19033099	1.3629082	0.92502476	0.050693188	1.470707	1.3287848	-0.13418821	1.459127	1.3294846	0.22882407	1.3877537	1.3663619	0.043052793	1.4013378	1.0178253	-0.18065096	1.4116519	1.0119057	0.30130963	1.5283457	0.81074449	-0.22127015	1.6020886	0.8554449	0.31239947
449	1.792	1.6385967	0.033622512	0.014136363	1.2535071	0.087077656	0.17969027	1.5158786	0.067331966	-0.018926672	1.2131221	0.22159735	0.19356695	1.5131743	0.082726453	0.067616992	1.2578827	0.2125663	0.11680666	1.4374972	0.041506304	0.018964301	1.1799477	0.25314732	0.12578597	1.6015529	0.43298286	-0.03155861	1.5317573	0.42759859	0.23906751	1.5630068	0.43255382	0.083525016	1.5368952	0.40360806	0.10552964	1.5117391	0.81858886	-0.11250544	1.440321	0.78336164	0.21943763	1.5728447	0.86121795	-0.05647907	1.5402245	0.84829986	0.19008561	1.3691608	0.92638786	0.050663742	1.4769695	1.3306555	-0.13393192	1.464994	1.3309384	0.22890658	1.3938188	1.3678254	0.043194907	1.4096153	1.0190002	-0.18101936	1.4151052	1.0137268	0.30075299	1.5399327	0.81341973	-0.22024294	1.6036593	0.85469406	0.31288274
450	1.796	1.6386352	0.033611043	0.014122813	1.2717323	0.08664852	0.18114553	1.5159363	0.067470178	-0.018849573	1.2282046	0.21987269	0.19392974	1.5133199	0.082956713	0.067669742	1.2729051	0.21131509	0.11750014	1.4375566	0.041760166	0.019145264	1.1934782	0.25011553	0.12607902	1.6027809	0.4329238	-0.031407068	1.5433534	0.43038293	0.23927259	1.564085	0.43252518	0.08367151	1.5487424	0.40639993	0.10577199	1.5163376	0.81929771	-0.11252008	1.4494861	0.78523916	0.22019174	1.5785402	0.86245636	-0.056885349	1.5465015	0.85018973	0.18980365	1.3752084	0.92777077	0.050852797	1.4832429	1.3325144	-0.1336693	1.4709108	1.3323338	0.22897768	1.3998793	1.3692495	0.043352489	1.4178835	1.020163	-0.18140082	1.4190064	1.0155684	0.30030221	1.5516592	0.81615267	-0.21916128	1.6051825	0.85398939	0.31337032
451	1.8	1.6386761	0.03360132	0.014103805	1.2901166	0.086154217	0.18257106	1.5159909	0.067623061	-0.018775116	1.2435633	0.21779338	0.19440283	1.5135067	0.083175584	0.067716126	1.2877368	0.20993249	0.11781452	1.4376125	0.042038766	0.01931764	1.2072375	0.24681729	0.1262076	1.6039658	0.43288329	-0.031276261	1.5549184	0.43315562	0.23947183	1.5652383	0.43250359	0.083823263	1.5606714	0.40938607	0.10597445	1.52111	0.82001596	-0.11250534	1.4592376	0.78704347	0.22109976	1.5841248	0.8636963	-0.057242957	1.5528181	0.85207854	0.18948827	1.3811118	0.92916275	0.051184267	1.4895316	1.3343715	-0.13340738	1.4768839	1.3336886	0.22908358	1.405931	1.3706347	0.04351029	1.4261408	1.0213178	-0.18178172	1.423476	1.0174533	0.29996291	1.5634507	0.81894843	-0.21804269	1.6066617	0.85333142	0.31386247
